<svg width="236" height="41" viewBox="0 0 236 41" fill="none" xmlns="http://www.w3.org/2000/svg">
<path d="M0.578125 40V-1.19209e-06H29.4063V8.75H11.4375V15.625H27.9219V24.375H11.4375V31.25H29.3281V40H0.578125ZM39.792 40V-1.19209e-06H57.0576C60.0264 -1.19209e-06 62.624 0.585937 64.8506 1.75781C67.0771 2.92969 68.8089 4.57682 70.0459 6.69922C71.2829 8.82161 71.9014 11.3021 71.9014 14.1406C71.9014 17.0052 71.2633 19.4857 69.9873 21.582C68.7243 23.6784 66.9469 25.293 64.6553 26.4258C62.3766 27.5586 59.7139 28.125 56.667 28.125H46.3545V19.6875H54.4795C55.7555 19.6875 56.8428 19.4661 57.7412 19.0234C58.6527 18.5677 59.3493 17.9232 59.8311 17.0898C60.3258 16.2565 60.5732 15.2734 60.5732 14.1406C60.5732 12.9948 60.3258 12.0182 59.8311 11.2109C59.3493 10.3906 58.6527 9.76562 57.7412 9.33594C56.8428 8.89323 55.7555 8.67187 54.4795 8.67187H50.6514V40H39.792ZM100.729 15.9375V24.0625H81.9795V15.9375H100.729ZM111.989 40V-1.19209e-06H122.849V15.625H137.224V-1.19209e-06H148.083V40H137.224V24.375H122.849V40H111.989ZM181.911 -1.19209e-06H192.771V25.625C192.771 28.6719 192.041 31.3086 190.583 33.5352C189.138 35.7487 187.119 37.4609 184.528 38.6719C181.937 39.8698 178.929 40.4688 175.505 40.4688C172.054 40.4688 169.034 39.8698 166.442 38.6719C163.851 37.4609 161.833 35.7487 160.388 33.5352C158.955 31.3086 158.239 28.6719 158.239 25.625V-1.19209e-06H169.099V24.6875C169.099 25.9245 169.372 27.0312 169.919 28.0078C170.466 28.9714 171.221 29.7266 172.185 30.2734C173.161 30.8203 174.268 31.0937 175.505 31.0937C176.755 31.0937 177.862 30.8203 178.825 30.2734C179.789 29.7266 180.544 28.9714 181.091 28.0078C181.638 27.0312 181.911 25.9245 181.911 24.6875V-1.19209e-06ZM202.932 40V-1.19209e-06H220.275C223.322 -1.19209e-06 225.881 0.410156 227.951 1.23047C230.035 2.05078 231.604 3.20963 232.658 4.70703C233.726 6.20443 234.26 7.96875 234.26 10C234.26 11.4714 233.934 12.8125 233.283 14.0234C232.645 15.2344 231.747 16.25 230.588 17.0703C229.429 17.8776 228.075 18.4375 226.525 18.75V19.1406C228.244 19.2057 229.807 19.6419 231.213 20.4492C232.619 21.2435 233.739 22.3437 234.572 23.75C235.406 25.1432 235.822 26.7839 235.822 28.6719C235.822 30.8594 235.249 32.806 234.104 34.5117C232.971 36.2174 231.356 37.5586 229.26 38.5352C227.163 39.5117 224.663 40 221.76 40H202.932ZM213.791 31.3281H218.869C220.692 31.3281 222.059 30.9896 222.971 30.3125C223.882 29.6224 224.338 28.6068 224.338 27.2656C224.338 26.3281 224.123 25.5339 223.693 24.8828C223.264 24.2318 222.652 23.737 221.857 23.3984C221.076 23.0599 220.132 22.8906 219.025 22.8906H213.791V31.3281ZM213.791 16.1719H218.244C219.195 16.1719 220.035 16.0221 220.764 15.7227C221.493 15.4232 222.059 14.9935 222.463 14.4336C222.88 13.8607 223.088 13.1641 223.088 12.3437C223.088 11.1068 222.645 10.1628 221.76 9.51172C220.874 8.84766 219.755 8.51562 218.4 8.51562H213.791V16.1719Z" fill="black"/>
</svg>
